<svg viewBox="0 0 800 200" xmlns="http://www.w3.org/2000/svg">
  <!-- Background (transparent) -->
  <rect width="800" height="200" fill="none"/>
  
  <!-- Olahrogo text in mono sans style -->
  <!-- O -->
  <path d="M100,100 C100,75 115,65 140,65 C165,65 180,75 180,100 C180,125 165,135 140,135 C115,135 100,125 100,100 Z" fill="none" stroke="black" stroke-width="12" stroke-linejoin="round"/>
  
  <!-- l -->
  <path d="M210,65 L210,135" fill="none" stroke="black" stroke-width="12" stroke-linejoin="round"/>
  
  <!-- a - single-story lowercase a with size matching o -->
  <path d="M240,110 C240,95 250,85 265,85 C280,85 290,95 290,110 L290,135" fill="none" stroke="black" stroke-width="12" stroke-linejoin="round"/>
  <path d="M290,110 C290,125 280,135 265,135 C250,135 240,125 240,110" fill="none" stroke="black" stroke-width="12" stroke-linejoin="round"/>
  
  <!-- h - adjusted for new a width -->
  <path d="M320,65 L320,135" fill="none" stroke="black" stroke-width="12" stroke-linejoin="round"/>
  <path d="M320,95 C320,95 335,95 350,95 C365,95 380,95 380,110 L380,135" fill="none" stroke="black" stroke-width="12" stroke-linejoin="round"/>
  
  <!-- r - adjusted for new positions -->
  <path d="M410,95 L410,135" fill="none" stroke="black" stroke-width="12" stroke-linejoin="round"/>
  <path d="M410,95 C410,95 420,85 435,85 C450,85 460,90 460,90" fill="none" stroke="black" stroke-width="12" stroke-linejoin="round"/>
  
  <!-- o, g, o - adjusted for new positions -->
  <!-- o -->
  <path d="M490,110 C490,95 500,85 515,85 C530,85 540,95 540,110 C540,125 530,135 515,135 C500,135 490,125 490,110 Z" fill="none" stroke="black" stroke-width="12" stroke-linejoin="round"/>
  
  <!-- g -->
  <path d="M570,110 C570,95 580,85 595,85 C610,85 620,95 620,110 C620,125 610,135 595,135 C580,135 570,125 570,110 Z" fill="none" stroke="black" stroke-width="12" stroke-linejoin="round"/>
  <path d="M620,110 L620,155 C620,165 610,170 595,170 C580,170 570,165 570,155" fill="none" stroke="black" stroke-width="12" stroke-linejoin="round"/>
  
  <!-- o -->
  <path d="M650,110 C650,95 660,85 675,85 C690,85 700,95 700,110 C700,125 690,135 675,135 C660,135 650,125 650,110 Z" fill="none" stroke="black" stroke-width="12" stroke-linejoin="round"/>
  
  <!-- Orange dots -->
  <circle cx="100" cy="100" r="8" fill="#FF6600"/>
  <circle cx="140" cy="65" r="8" fill="#FF6600"/>
  <circle cx="180" cy="100" r="8" fill="#FF6600"/>
  <circle cx="210" cy="65" r="8" fill="#FF6600"/>
  <!-- Orange dots for a -->
  <circle cx="240" cy="110" r="8" fill="#FF6600"/>
  <circle cx="265" cy="85" r="8" fill="#FF6600"/>
  <circle cx="290" cy="135" r="8" fill="#FF6600"/>
  <!-- h orange dots -->
  <circle cx="320" cy="65" r="8" fill="#FF6600"/>
  <circle cx="380" cy="110" r="8" fill="#FF6600"/>
  <!-- r orange dots -->
  <circle cx="410" cy="95" r="8" fill="#FF6600"/>
  <circle cx="460" cy="90" r="8" fill="#FF6600"/>
  <!-- Final orange dots -->
  <circle cx="490" cy="110" r="8" fill="#FF6600"/>
  <circle cx="540" cy="110" r="8" fill="#FF6600"/>
  <circle cx="595" cy="85" r="8" fill="#FF6600"/>
  <circle cx="570" cy="155" r="8" fill="#FF6600"/>
  <circle cx="700" cy="110" r="8" fill="#FF6600"/>
</svg>